<svg width="27" height="27" viewBox="0 0 27 27" fill="none" xmlns="http://www.w3.org/2000/svg">
<circle cx="13.23" cy="13.23" r="13.23" fill="white"/>
<path d="M13.23 26.46C5.92373 26.46 0 20.5363 0 13.23C0 5.92373 5.92373 0 13.23 0C20.5363 0 26.46 5.92373 26.46 13.23C26.46 20.5363 20.5363 26.46 13.23 26.46ZM10.2797 18.425C10.4077 18.553 10.5596 18.6545 10.7269 18.7238C10.8941 18.7931 11.0733 18.8288 11.2543 18.8288C11.4353 18.8288 11.6146 18.7931 11.7818 18.7238C11.949 18.6545 12.101 18.553 12.2289 18.425L20.5837 10.0702C20.7117 9.94225 20.8132 9.7903 20.8825 9.62308C20.9517 9.45586 20.9874 9.27663 20.9874 9.09562C20.9874 8.91462 20.9517 8.73539 20.8825 8.56817C20.8132 8.40095 20.7117 8.249 20.5837 8.12101C20.4557 7.99303 20.3037 7.8915 20.1365 7.82224C19.9693 7.75297 19.7901 7.71732 19.6091 7.71732C19.4281 7.71732 19.2488 7.75297 19.0816 7.82224C18.9144 7.8915 18.7624 7.99303 18.6345 8.12101L11.1948 15.4416L7.86524 12.1121C7.60675 11.8536 7.25617 11.7084 6.89062 11.7084C6.52508 11.7084 6.1745 11.8536 5.91602 12.1121C5.65753 12.3705 5.51232 12.7211 5.51232 13.0867C5.51232 13.2677 5.54797 13.4469 5.61724 13.6141C5.6865 13.7814 5.78803 13.9333 5.91602 14.0613L10.2797 18.425Z" fill="#5CD968"/>
</svg>
