<svg width="175" height="157" viewBox="0 0 175 157" fill="none" xmlns="http://www.w3.org/2000/svg">
<path d="M91.1919 0H0L175 157V73.5L91.1919 0Z" fill="#0089F0"/>
<path d="M59.9037 26.9508C59.0959 26.2219 58.5052 25.4197 58.1316 24.5439C57.7688 23.6563 57.6385 22.7737 57.7406 21.8961C57.8535 21.0067 58.2315 20.2056 58.8746 19.4928C59.3354 18.982 59.8651 18.5979 60.4636 18.3405C61.0622 18.0832 61.6843 17.9549 62.3301 17.9557C62.9984 17.9553 63.6292 18.1042 64.2223 18.4022C63.7713 17.5644 63.5868 16.7299 63.6687 15.8987C63.7625 15.0782 64.072 14.3769 64.5971 13.7948C65.1545 13.1771 65.8186 12.7634 66.5895 12.5539C67.3604 12.3443 68.1709 12.3536 69.0209 12.5818C69.8829 12.8207 70.7237 13.3099 71.5434 14.0495C72.3749 14.7997 72.9478 15.5859 73.262 16.4081C73.588 17.241 73.6804 18.0462 73.5391 18.8239C73.4097 19.6122 73.0663 20.3152 72.509 20.933C71.9838 21.5151 71.312 21.8895 70.4936 22.0561C69.687 22.2336 68.844 22.141 67.9643 21.7783C68.3335 22.3485 68.5462 22.9606 68.6025 23.6148C68.6814 24.2678 68.6176 24.8998 68.4111 25.5108C68.2165 26.1326 67.8888 26.6989 67.4279 27.2097C66.7848 27.9225 66.0267 28.3806 65.1535 28.5841C64.3029 28.7864 63.4116 28.7473 62.4796 28.4667C61.5701 28.1849 60.7115 27.6796 59.9037 26.9508ZM61.0934 25.6321C62.0319 26.4788 62.9198 26.892 63.757 26.8716C64.6169 26.8501 65.3684 26.4829 66.0114 25.7701C66.7403 24.9623 67.0368 24.1201 66.9011 23.2434C66.7773 22.3775 66.2937 21.564 65.4502 20.8031C64.6068 20.0421 63.7421 19.639 62.8561 19.594C61.982 19.5596 61.1806 19.9463 60.4518 20.7541C59.8087 21.4669 59.5205 22.2521 59.5873 23.1096C59.6647 23.9553 60.1668 24.7961 61.0934 25.6321ZM66.5756 19.5557C67.324 20.2309 68.0948 20.5708 68.8881 20.5753C69.6813 20.5799 70.3566 20.2733 70.9139 19.6555C71.5463 18.9546 71.8035 18.2277 71.6855 17.4747C71.5793 16.7325 71.1461 16.0184 70.3858 15.3325C69.6374 14.6572 68.8827 14.2995 68.1216 14.2594C67.3724 14.2299 66.6816 14.5656 66.0492 15.2665C65.4919 15.8843 65.2502 16.5821 65.3242 17.36C65.41 18.1485 65.8272 18.8805 66.5756 19.5557ZM70.7272 36.7158C69.6343 35.7298 68.931 34.6104 68.6174 33.3577C68.3263 32.1039 68.407 30.8083 68.8594 29.4709C69.3225 28.1216 70.1328 26.8055 71.2903 25.5225C72.4478 24.2395 73.6686 23.3044 74.9525 22.7173C76.2472 22.1183 77.5277 21.9052 78.794 22.078C80.083 22.2497 81.274 22.8285 82.3669 23.8145C83.4598 24.8006 84.1458 25.9152 84.425 27.1583C84.7268 28.4003 84.6461 29.6959 84.183 31.0452C83.7306 32.3825 82.9257 33.6927 81.7682 34.9757C80.6106 36.2587 79.3845 37.1997 78.0899 37.7987C76.8059 38.3859 75.5254 38.599 74.2483 38.438C72.9938 38.276 71.8201 37.7019 70.7272 36.7158ZM71.8991 35.3811C72.6119 36.0242 73.4296 36.3957 74.3524 36.4955C75.2859 36.5834 76.2559 36.392 77.2626 35.9211C78.28 35.4383 79.2711 34.6623 80.2357 33.5931C81.2003 32.5239 81.8652 31.4645 82.2304 30.4148C82.6063 29.3533 82.6973 28.3687 82.5034 27.461C82.3094 26.5534 81.8561 25.778 81.1433 25.1349C80.4305 24.4919 79.6068 24.115 78.6722 24.0045C77.7494 23.9047 76.7793 24.0961 75.7619 24.5789C74.7671 25.0606 73.7874 25.836 72.8228 26.9051C71.8582 27.9743 71.182 29.0343 70.7942 30.0851C70.429 31.1348 70.338 32.1194 70.5212 33.039C70.727 33.9573 71.1863 34.7381 71.8991 35.3811ZM78.8604 43.6658L97.3667 37.7354L98.8636 39.0859L80.3572 45.0162L78.8604 43.6658ZM86.5258 50.9695C85.9913 50.4872 85.6173 49.9343 85.404 49.3109C85.2014 48.6756 85.1731 48.0143 85.319 47.3271C85.4768 46.6506 85.829 46.0094 86.3756 45.4035C86.933 44.7858 87.5347 44.3697 88.1807 44.1552C88.8493 43.9396 89.5047 43.9059 90.1467 44.0542C90.7994 44.1905 91.3931 44.4999 91.9277 44.9822C92.4741 45.4752 92.8427 46.034 93.0334 46.6586C93.2467 47.282 93.2745 47.932 93.1167 48.6085C92.9696 49.2731 92.6174 49.9143 92.0601 50.5321C91.5134 51.1379 90.9118 51.554 90.255 51.7804C89.5983 52.0067 88.9435 52.0517 88.2908 51.9154C87.6487 51.7671 87.0604 51.4518 86.5258 50.9695ZM87.553 49.7952C87.8381 50.0524 88.1584 50.2229 88.5139 50.3065C88.8801 50.3783 89.2578 50.3419 89.6468 50.1973C90.0478 50.0634 90.4305 49.7945 90.7949 49.3906C91.17 48.9748 91.4095 48.566 91.5135 48.1642C91.6175 47.7623 91.6096 47.3889 91.4899 47.0438C91.3809 46.6869 91.1839 46.3799 90.8988 46.1226C90.6255 45.8761 90.2999 45.7116 89.9218 45.6291C89.5663 45.5454 89.1881 45.5705 88.7871 45.7044C88.3981 45.849 88.016 46.1292 87.6408 46.545C87.2764 46.9489 87.0422 47.3518 86.9383 47.7536C86.8462 48.1662 86.8547 48.5509 86.9636 48.9079C87.0833 49.2529 87.2798 49.5487 87.553 49.7952ZM85.8871 37.8838C85.3525 37.4015 84.9786 36.8486 84.7653 36.2252C84.5627 35.5898 84.5343 34.9286 84.6803 34.2414C84.8381 33.5648 85.1903 32.9237 85.7369 32.3178C86.2942 31.7001 86.8959 31.284 87.542 31.0695C88.2106 30.8539 88.8659 30.8202 89.5079 30.9684C90.1726 31.1155 90.7722 31.4302 91.3068 31.9125C91.8413 32.3948 92.2099 32.9536 92.4125 33.5889C92.6258 34.2124 92.6536 34.8624 92.4958 35.5389C92.3487 36.2035 91.9965 36.8447 91.4391 37.4624C90.8925 38.0683 90.2908 38.4844 89.6341 38.7107C88.9773 38.9371 88.3166 38.9767 87.652 38.8296C87.01 38.6814 86.4217 38.3661 85.8871 37.8838ZM86.9321 36.7255C87.2172 36.9827 87.5375 37.1532 87.893 37.2369C88.2592 37.3087 88.6368 37.2723 89.0259 37.1277C89.415 36.983 89.7917 36.7088 90.1561 36.3049C90.5313 35.8891 90.7708 35.4803 90.8748 35.0784C90.9894 34.6647 90.9869 34.2853 90.8672 33.9403C90.7583 33.5834 90.5671 33.2817 90.2939 33.0351C90.0207 32.7886 89.695 32.6241 89.3169 32.5416C88.9496 32.4472 88.56 32.4729 88.1484 32.6187C87.7593 32.7633 87.3772 33.0435 87.0021 33.4593C86.6377 33.8632 86.4035 34.266 86.2995 34.6679C86.2075 35.0805 86.2159 35.4652 86.3249 35.8221C86.4565 36.1779 86.6589 36.479 86.9321 36.7255ZM98.71 61.9622C97.7953 61.1369 97.1494 60.2525 96.7724 59.309C96.3954 58.3654 96.2906 57.4305 96.4583 56.5043C96.6259 55.578 97.0634 54.7229 97.7708 53.9388L99.3389 55.3536C98.8995 55.8407 98.605 56.3939 98.4556 57.0133C98.3169 57.6209 98.3489 58.2423 98.5515 58.8776C98.7767 59.5118 99.21 60.1183 99.8515 60.697C100.41 61.2008 100.965 61.5404 101.518 61.7159C102.094 61.8902 102.627 61.9081 103.118 61.7696C103.622 61.6417 104.055 61.3759 104.42 60.972C104.859 60.4849 105.106 59.9964 105.16 59.5065C105.237 59.0154 105.183 58.5141 104.998 58.0025C104.813 57.4909 104.547 56.9494 104.201 56.3781C103.877 55.8057 103.534 55.2059 103.173 54.5787C102.488 53.3565 102.138 52.2869 102.125 51.37C102.112 50.453 102.464 49.5966 103.182 48.8006C103.793 48.1235 104.484 47.6689 105.253 47.4367C106.035 47.2153 106.845 47.2246 107.685 47.4646C108.547 47.7035 109.382 48.1874 110.189 48.9162C110.985 49.6343 111.54 50.4045 111.854 51.2266C112.181 52.0595 112.274 52.8874 112.135 53.7102C112.007 54.5211 111.637 55.2651 111.026 55.9423L109.458 54.5275C109.769 54.183 109.985 53.764 110.107 53.2706C110.229 52.7772 110.203 52.2575 110.027 51.7114C109.874 51.1642 109.525 50.644 108.978 50.151C108.538 49.7318 108.064 49.4446 107.558 49.2894C107.074 49.133 106.597 49.1122 106.127 49.227C105.669 49.3525 105.247 49.6291 104.861 50.0568C104.497 50.4607 104.285 50.8624 104.226 51.2619C104.18 51.6722 104.236 52.1111 104.396 52.5787C104.579 53.0451 104.825 53.5478 105.136 54.087C105.447 54.6261 105.79 55.2259 106.163 55.8864C106.587 56.635 106.897 57.3667 107.092 58.0817C107.31 58.7956 107.346 59.4961 107.2 60.1833C107.066 60.8812 106.683 61.5807 106.05 62.2816C105.515 62.8755 104.845 63.2951 104.042 63.5403C103.262 63.7844 102.412 63.794 101.495 63.5693C100.577 63.3446 99.6485 62.8089 98.71 61.9622ZM107.194 69.6161C106.469 68.9623 105.976 68.2909 105.714 67.602C105.462 66.9012 105.405 66.2358 105.543 65.6056C105.691 64.9636 105.99 64.3931 106.441 63.8942C106.987 63.2883 107.602 62.9168 108.286 62.7797C108.993 62.6414 109.728 62.7226 110.491 63.0232C111.277 63.3227 112.062 63.8261 112.846 64.5335L115.216 66.6717C115.719 66.1134 116.048 65.5697 116.202 65.0406C116.379 64.5104 116.387 64.0002 116.226 63.5101C116.076 63.0306 115.758 62.5712 115.271 62.1317C114.701 61.6173 114.079 61.315 113.406 61.225C112.733 61.135 112.097 61.3263 111.499 61.7989L109.966 60.4163C110.616 59.8391 111.312 59.4974 112.055 59.3913C112.819 59.284 113.583 59.3694 114.345 59.6474C115.118 59.9135 115.807 60.3199 116.413 60.8665C117.244 61.6168 117.794 62.3929 118.062 63.1948C118.352 63.9955 118.387 64.7924 118.168 65.5853C117.959 66.3664 117.522 67.1252 116.857 67.8618L111.841 73.4215L110.505 72.2157L111.847 70.5494C111.503 70.6917 111.134 70.7899 110.74 70.8442C110.369 70.8972 109.984 70.8944 109.584 70.8356C109.195 70.765 108.798 70.6325 108.391 70.4381C107.997 70.2545 107.597 69.9805 107.194 69.6161ZM108.567 68.5599C108.982 68.935 109.432 69.1895 109.914 69.3233C110.42 69.4559 110.925 69.4809 111.431 69.3982C111.947 69.3037 112.43 69.1259 112.882 68.8648C113.344 68.6145 113.758 68.2873 114.123 67.8834L114.171 67.83L111.926 65.8043C111.343 65.2791 110.81 64.927 110.325 64.748C109.851 64.5572 109.424 64.5168 109.044 64.627C108.675 64.7252 108.352 64.9288 108.073 65.2376C107.784 65.5584 107.603 65.9019 107.531 66.2681C107.471 66.645 107.525 67.0274 107.692 67.4153C107.871 67.814 108.163 68.1955 108.567 68.5599ZM115.697 76.9003L120.396 64.8486L121.965 66.2634L117.873 76.2447L127.4 71.1669L128.932 72.5495L117.426 78.4598L115.697 76.9003ZM121.94 82.5328L130.043 73.5518L131.54 74.9022L123.437 83.8832L121.94 82.5328ZM132.512 72.3203C132.215 72.0524 132.051 71.7323 132.02 71.36C132.013 70.9865 132.143 70.6513 132.411 70.3543C132.678 70.0573 132.988 69.9055 133.339 69.8988C133.712 69.8909 134.047 70.021 134.344 70.2889C134.629 70.5461 134.787 70.8609 134.818 71.2332C134.859 71.5936 134.746 71.9223 134.478 72.2192C134.21 72.5162 133.884 72.6746 133.499 72.6944C133.126 72.7022 132.797 72.5775 132.512 72.3203ZM125.366 85.6233L133.468 76.6423L134.823 77.8641L133.479 79.4966C134.268 79.1955 135.063 79.1263 135.865 79.289C136.689 79.4505 137.439 79.8368 138.116 80.4477C138.817 81.0801 139.294 81.7692 139.548 82.5152C139.812 83.2493 139.83 84.0301 139.6 84.8575C139.382 85.6731 138.881 86.5145 138.099 87.3817L133.26 92.7454L131.763 91.3949L136.457 86.1916C137.272 85.2888 137.681 84.4294 137.684 83.6136C137.7 82.8085 137.345 82.079 136.62 81.4252C136.121 80.9751 135.563 80.6979 134.946 80.5937C134.34 80.4776 133.709 80.544 133.053 80.7929C132.42 81.0407 131.798 81.5032 131.187 82.1803L126.863 86.9738L125.366 85.6233ZM134.701 101.545C133.894 100.816 133.271 100.061 132.835 99.2793C132.399 98.52 132.202 97.7711 132.243 97.0326C132.285 96.2941 132.589 95.6101 133.157 94.9804C133.404 94.7072 133.72 94.4644 134.106 94.252C134.503 94.0503 134.972 93.9242 135.514 93.8737C136.067 93.834 136.706 93.9257 137.431 94.149L137.918 95.6873C137.052 95.3806 136.375 95.3078 135.884 95.469C135.384 95.642 135.004 95.8711 134.747 96.1562C134.394 96.5482 134.212 96.9767 134.202 97.4417C134.192 97.9067 134.329 98.3867 134.616 98.8818C134.902 99.3769 135.3 99.8549 135.811 100.316C136.322 100.777 136.825 101.102 137.322 101.292C137.819 101.481 138.287 101.537 138.724 101.457C139.162 101.378 139.542 101.161 139.863 100.804C140.238 100.388 140.4 99.8986 140.348 99.3348C140.286 98.7829 139.843 98.092 139.018 97.2621C138.36 96.5822 137.831 95.9863 137.431 95.4744C137.031 94.9626 136.725 94.5138 136.512 94.1283C136.311 93.7308 136.167 93.3643 136.082 93.0288C136.009 92.7041 135.958 92.3895 135.931 92.085L136.301 91.6751L139.573 91.5239L140.456 93.1608L137.227 93.1569L138.021 92.7422C138.066 92.9551 138.111 93.1568 138.154 93.3471C138.198 93.5375 138.294 93.7534 138.443 93.995C138.591 94.2366 138.822 94.542 139.135 94.911C139.461 95.2908 139.899 95.7724 140.45 96.3558C141.216 97.1547 141.741 97.8868 142.024 98.5519C142.32 99.2278 142.403 99.8523 142.274 100.425C142.156 101.009 141.862 101.562 141.39 102.085C140.93 102.596 140.353 102.948 139.661 103.143C138.969 103.359 138.199 103.354 137.349 103.126C136.499 102.897 135.616 102.371 134.701 101.545ZM140.954 94.5796C140.205 93.9044 139.692 93.1831 139.415 92.4157C139.149 91.659 139.094 90.9198 139.25 90.1981C139.416 89.4645 139.767 88.8007 140.303 88.2067C140.839 87.6128 141.458 87.2014 142.16 86.9727C142.874 86.7548 143.621 86.7391 144.401 86.9255C145.191 87.1001 145.961 87.525 146.709 88.2003C147.458 88.8755 147.959 89.5974 148.214 90.366C148.479 91.1227 148.534 91.8619 148.379 92.5836C148.223 93.3053 147.878 93.9631 147.342 94.5571C146.806 95.1511 146.182 95.5684 145.469 95.8089C144.767 96.0376 144.026 96.0587 143.246 95.8722C142.466 95.6857 141.702 95.2549 140.954 94.5796ZM142.063 93.3501C142.704 93.9289 143.359 94.2181 144.028 94.2177C144.696 94.2173 145.32 93.8964 145.898 93.2549C146.466 92.6253 146.716 91.978 146.648 91.3131C146.58 90.6482 146.225 90.0264 145.584 89.4476C144.954 88.8796 144.293 88.585 143.601 88.564C142.921 88.5536 142.297 88.8633 141.729 89.4929C141.15 90.1344 140.901 90.7929 140.981 91.4685C141.061 92.1441 141.421 92.7713 142.063 93.3501ZM146.836 90.9976L147.532 89.3305L151.203 92.6423L150.19 93.765L146.836 90.9976ZM147.302 105.802C146.553 105.127 146.012 104.413 145.679 103.659C145.358 102.917 145.229 102.176 145.293 101.436C145.379 100.695 145.66 99.9898 146.136 99.3197L147.668 100.702C147.449 101.065 147.316 101.462 147.271 101.895C147.225 102.328 147.288 102.772 147.458 103.228C147.652 103.683 147.986 104.124 148.461 104.553C148.877 104.928 149.275 105.179 149.655 105.307C150.046 105.423 150.404 105.433 150.727 105.337C151.063 105.252 151.343 105.084 151.568 104.835C151.9 104.467 152.063 104.107 152.056 103.756C152.062 103.416 151.946 103.043 151.71 102.636C151.485 102.217 151.172 101.751 150.772 101.239C150.444 100.814 150.143 100.371 149.871 99.9093C149.598 99.4476 149.398 98.9877 149.273 98.5296C149.158 98.0597 149.14 97.6018 149.219 97.156C149.31 96.7208 149.543 96.2953 149.918 95.8795C150.379 95.3687 150.917 95.0352 151.532 94.879C152.158 94.7108 152.816 94.7336 153.507 94.9474C154.209 95.1718 154.887 95.5788 155.541 96.1683C156.503 97.0364 157.072 97.9701 157.248 98.9693C157.424 99.9685 157.169 100.956 156.483 101.931L155.004 100.597C155.352 100.092 155.472 99.5647 155.364 99.0152C155.279 98.4644 154.952 97.9318 154.382 97.4174C153.823 96.9136 153.294 96.6406 152.793 96.5984C152.304 96.5669 151.894 96.7353 151.562 97.1035C151.347 97.3411 151.231 97.6246 151.214 97.954C151.22 98.2823 151.318 98.6511 151.509 99.0604C151.712 99.4805 152.008 99.9411 152.396 100.442C152.893 101.085 153.305 101.715 153.632 102.333C153.958 102.951 154.109 103.572 154.084 104.196C154.082 104.819 153.792 105.451 153.213 106.093C152.709 106.651 152.127 107.01 151.467 107.168C150.819 107.337 150.132 107.31 149.407 107.087C148.692 106.852 147.991 106.424 147.302 105.802Z" fill="white"/>
</svg>
