<svg width="479" height="171" viewBox="0 0 479 171" fill="none" xmlns="http://www.w3.org/2000/svg">
<path d="M209.802 132.047C198.621 132.047 191.684 126.533 190 116.314L196.062 115.104C197.274 122.298 201.854 125.996 209.465 125.996C216.806 125.996 221.925 122.5 221.925 117.524C221.925 113.154 217.951 110.129 208.253 107.305C196.466 103.943 191.414 98.9681 191.414 91.9759C191.414 83.9752 198.015 79 208.589 79C218.894 79 225.091 83.7063 227.179 92.7155L220.915 94.0601C219.568 88.0092 215.527 84.9837 208.455 84.9837C201.854 84.9837 197.746 87.5385 197.746 91.9087C197.746 95.9426 201.181 98.6992 210.812 101.657C223.474 105.49 228.189 110.465 228.189 117.524C228.189 126.332 220.982 132.047 209.802 132.047Z" fill="#0076CE"/>
<path d="M250.488 131.576C244.023 131.576 241.396 129.088 241.396 122.768V100.313H235.469V94.4635H241.396V84.3114H247.458V94.4635H254.664V100.313H247.458V121.894C247.458 124.92 248.805 125.525 250.758 125.525H255.001V131.307C253.654 131.441 251.97 131.576 250.488 131.576Z" fill="#0076CE"/>
<path d="M279.525 131.576C269.018 131.576 260.936 123.575 260.936 112.751C260.936 101.926 269.018 93.8584 279.525 93.8584C290.032 93.8584 298.115 101.926 298.115 112.751C298.115 123.575 290.032 131.576 279.525 131.576ZM279.525 125.727C286.328 125.727 291.783 120.079 291.783 112.751C291.783 105.422 286.328 99.8421 279.525 99.8421C272.723 99.8421 267.267 105.422 267.267 112.751C267.267 120.079 272.723 125.727 279.525 125.727Z" fill="#0076CE"/>
<path d="M305.549 130.769V94.4635H311.61V99.1026C314.574 95.2703 318.144 93.8584 323.734 94.1946V101.12C316.056 100.716 311.61 104.548 311.61 111.675V130.769H305.549Z" fill="#0076CE"/>
<path d="M341.495 131.576C334.154 131.576 329.102 127.475 329.102 121.357C329.102 115.843 333.076 112.751 338.262 111.137C345.94 108.717 352.339 107.91 352.339 104.078C352.339 101.456 349.443 99.6404 345.132 99.6404C340.687 99.6404 337.521 101.59 336.241 105.086L330.516 103.204C332.335 97.2873 337.656 93.8584 345.267 93.8584C353.82 93.8584 358.939 98.1613 358.939 106.431V123.374C358.939 125.323 360.623 126.399 362.509 125.592V130.904C361.566 131.374 360.623 131.576 359.613 131.576C356.851 131.576 354.561 129.895 353.686 127.273C350.183 130.097 345.873 131.576 341.495 131.576ZM341.764 125.727C346.008 125.727 350.52 123.71 352.945 120.886V111.675C344.458 116.583 335.231 115.44 335.231 121.02C335.231 124.046 337.993 125.727 341.764 125.727Z" fill="#0076CE"/>
<path d="M383.698 131.576C373.325 131.576 367.398 122.634 367.398 112.549C367.398 101.725 374.066 93.8584 383.63 93.8584C390.568 93.8584 395.956 97.9596 398.246 104.75L392.386 106.229C390.702 101.725 387.335 99.8421 383.765 99.8421C377.636 99.8421 373.595 105.49 373.595 112.549C373.595 119.676 377.771 125.592 383.63 125.592C387.874 125.592 390.972 122.365 392.521 117.592L398.448 119.003C396.293 127.408 390.702 131.576 383.698 131.576Z" fill="#0076CE"/>
<path d="M406.143 130.702V79.9413H412.272V99.0353C416.044 95.2031 420.422 93.8584 424.53 93.8584C432.208 93.8584 436.923 98.4975 436.923 107.372V130.702H430.861V107.843C430.861 101.994 427.696 99.7749 423.52 99.7749C417.997 99.7749 413.619 103.405 412.272 108.179V130.702H406.143Z" fill="#0076CE"/>
<path d="M457.878 131.576C450.537 131.576 445.485 127.475 445.485 121.357C445.485 115.843 449.459 112.751 454.645 111.137C462.323 108.717 468.722 107.91 468.722 104.078C468.722 101.456 465.826 99.6404 461.515 99.6404C457.07 99.6404 453.904 101.59 452.625 105.086L446.9 103.204C448.718 97.2873 454.039 93.8584 461.65 93.8584C470.204 93.8584 475.322 98.1613 475.322 106.431V123.374C475.322 125.323 477.006 126.399 478.892 125.592V130.904C477.949 131.374 477.006 131.576 475.996 131.576C473.235 131.576 470.945 129.895 470.069 127.273C466.567 130.097 462.256 131.576 457.878 131.576ZM458.148 125.727C462.391 125.727 466.903 123.71 469.328 120.886V111.675C460.842 116.583 451.614 115.44 451.614 121.02C451.614 124.046 454.376 125.727 458.148 125.727Z" fill="#0076CE"/>
<g clip-path="url(#clip0_3270_2)">
<path d="M153.95 83.0545C153.693 72.5787 149.52 62.4417 142.327 54.7914C135.167 47.1741 125.327 42.4567 114.915 41.4736C113.613 41.3496 112.31 41.2918 110.999 41.2918H71.4081C70.2881 41.2918 69.334 42.2419 69.334 43.3572V69.4558H51.7537C50.0861 69.4558 48.8416 71.8104 50.2852 72.9836C56.0098 77.6349 61.7427 82.2862 67.4673 86.9375C68.0895 87.4415 68.7118 87.9454 69.3257 88.4494V89.9696C63.9247 92.2993 58.5236 94.6291 53.1226 96.9672C52.3178 97.3142 51.5048 97.6612 50.7 98.0164C48.9246 98.7848 49.6879 101.28 51.1978 101.792C56.939 103.75 62.6719 105.716 68.4131 107.674C68.7201 107.782 69.027 107.881 69.3257 107.988V153.469C69.3257 158.541 69.1764 163.647 69.3257 168.72C69.3257 168.794 69.3257 168.86 69.3257 168.935C69.3257 170.05 70.2798 171 71.3998 171H111.638C111.638 171 111.671 171 111.688 171C112.169 171 112.658 170.835 113.098 170.397L126.729 156.823C133.939 149.644 141.149 142.464 148.367 135.277C150.026 133.624 151.685 131.98 153.336 130.328C153.776 129.89 153.942 129.403 153.942 128.923C153.942 128.907 153.942 128.89 153.942 128.865V95.1992C153.942 91.151 154.025 87.0945 153.925 83.0545H153.95ZM85.6782 63.2596C87.8518 59.7484 92.1992 57.8317 96.2728 58.6991C100.977 59.6988 104.312 63.7883 104.37 68.5718C104.32 72.7109 101.74 76.6435 97.7496 78.0314C93.6428 79.4525 89.0216 78.2215 86.3004 74.7929C83.6953 71.4965 83.4796 66.8204 85.6782 63.2678V63.2596ZM57.5612 73.5949H69.334V83.1537C65.4098 79.9647 61.4855 76.7839 57.5612 73.5949ZM57.4617 99.5779C61.4191 97.8677 65.3766 96.1576 69.334 94.4556V103.634C65.3766 102.279 61.4191 100.933 57.4617 99.5779ZM98.0566 166.877H73.4823V111.086C74.0381 112.912 74.6604 114.325 75.3158 115.606C76.8424 118.604 80.1942 120.455 83.828 120.381C89.9592 120.249 94.2816 114.284 92.8878 108.344C92.5726 106.997 91.9752 105.774 91.0211 104.849C89.7849 103.651 88.9553 102.94 88.4326 102.519C86.7816 101.205 85.7196 99.2226 85.7943 97.1159C85.8524 95.3975 86.5742 93.7038 87.9348 92.4398C90.0338 90.49 93.0538 90.1265 95.4929 91.3079C99.2927 93.5469 103.748 94.4226 108.477 94.4226C121.121 94.4226 133.151 83.4676 133.151 69.4311C133.151 59.5005 128.38 51.1645 120.996 46.7528C127.103 48.3721 132.786 51.4454 137.457 55.7993C144.525 62.3921 149.022 71.5295 149.702 81.1709C149.993 85.3182 149.802 89.54 149.802 93.6873V123.958C149.802 124.892 149.769 125.842 149.76 126.792H111.638C110.518 126.792 109.564 127.742 109.564 128.857V166.861H98.0483L98.0566 166.877ZM115.147 162.532C114.674 163.003 114.193 163.482 113.72 163.953V130.939H146.873L136.785 140.985L115.147 162.532Z" fill="#0076CE"/>
<path d="M94.2651 72.901C96.6661 72.901 98.6125 70.9628 98.6125 68.5718C98.6125 66.1809 96.6661 64.2427 94.2651 64.2427C91.8641 64.2427 89.9177 66.1809 89.9177 68.5718C89.9177 70.9628 91.8641 72.901 94.2651 72.901Z" fill="#0076CE"/>
<path d="M71.126 38.6233C71.209 38.6315 71.2919 38.6481 71.3749 38.6481C71.3832 38.6481 71.3998 38.6481 71.4081 38.6481H131.774C136.312 38.6481 140.8 37.8054 144.741 35.4838C148.79 33.1127 152.623 29.048 153.726 24.3719C154.514 21.0424 153.17 16.9942 150.54 14.7966C146.716 11.5994 141.929 12.8964 138.129 15.3584C138.726 12.599 138.917 9.64135 138.004 6.99761C136.453 2.51153 132.246 0.421325 127.708 0.0495498C122.357 -0.39658 117.014 1.93321 112.791 5.0396C109.265 7.63376 106.146 10.8393 103.64 14.4496C103.557 14.2183 103.466 13.9787 103.366 13.7557C102.611 11.9794 101.433 10.4014 99.7573 9.37697C97.6915 8.11294 95.2274 7.99727 92.8878 8.37731C88.1588 9.13738 84.3092 12.4255 81.2809 15.9367C78.0785 19.6462 75.4485 23.8349 73.1504 28.1475C71.7814 30.7169 70.5038 33.3441 69.4003 36.0374C69.1431 36.6653 69.3671 37.3592 69.8069 37.8797C70.0889 38.2763 70.5287 38.5572 71.1177 38.6315L71.126 38.6233Z" fill="#0076CE"/>
<path d="M53.0812 89.6886C53.6619 89.3912 54.2676 89.1599 54.7156 88.6642C55.4955 87.805 55.6614 86.4749 55.1138 85.4504C54.8152 84.8886 54.3257 84.5086 53.8611 84.0955C53.2056 83.5089 52.5668 82.9141 51.9363 82.3027C50.6088 81.0139 49.3395 79.6672 48.1779 78.2297C46.5352 76.1973 45.2244 73.9832 43.3909 72.0995C41.5241 70.1663 39.3919 68.4727 37.0772 67.1095C31.6347 63.904 25.2132 62.7887 19.0489 64.3584C18.5345 64.4906 17.738 64.5649 17.4974 65.1267C17.3315 65.5233 17.4974 65.8537 17.7961 66.0851C17.821 66.1181 17.8625 66.1429 17.8957 66.1677C17.8957 66.1677 17.904 66.1759 17.9122 66.1842C17.9371 66.2007 17.9537 66.2007 17.9786 66.209C18.0035 66.209 18.0118 66.2338 18.0367 66.2338C18.0616 66.2338 18.0782 66.2503 18.1031 66.2503C18.1114 66.2503 18.1197 66.2503 18.128 66.2503C18.9825 66.4651 19.779 66.7873 20.5091 67.2747C21.0483 67.63 21.4383 68.1753 21.9444 68.5388C21.8199 68.547 21.6955 68.5636 21.654 68.5718C21.1894 68.5966 20.7248 68.6379 20.2685 68.704C17.8376 69.018 15.3901 69.8193 13.5068 71.4304C12.3121 72.4631 11.6069 73.818 10.7275 75.1068C9.63232 76.7013 8.39614 78.2049 6.96914 79.5185C5.65829 80.7247 4.14832 81.8235 2.44753 82.4018C1.71744 82.6497 -0.622178 82.6745 0.141101 84.0542C0.547631 84.7977 1.41047 85.4917 2.01611 86.0783C2.93703 86.9706 3.91602 87.8132 4.97797 88.5485C7.03551 89.9778 9.65721 91.1179 12.1794 90.3C14.9255 89.4077 18.7419 88.0115 21.2557 90.2835C22.0522 91.0022 22.6827 92.1919 22.1767 93.2412C21.6457 94.3482 20.2353 94.8357 19.1152 95.0505C18.2939 95.2074 17.4476 95.2405 16.618 95.2074C15.6971 95.1661 14.6932 94.753 13.7972 94.8109C13.4238 94.8357 13.092 95.0587 13.0007 95.447C12.8846 95.9592 13.2662 96.2484 13.6644 96.4715C16.1534 97.9173 18.8415 99.1069 21.5461 100.074C24.732 101.214 28.1584 102.065 31.5683 101.941C34.6214 101.825 37.6663 100.883 40.3211 99.3878C42.4865 98.1651 44.3781 96.5541 46.137 94.8191C47.6138 93.3651 48.9412 92.0845 50.7333 91.027C51.5049 90.5644 52.2764 90.1017 53.0812 89.6886ZM34.3642 86.4418C34.9865 85.3265 34.5965 83.9468 33.9411 82.9471C32.9621 81.4518 31.3858 80.6008 29.6684 80.1877C28.6231 79.9316 27.5362 79.8077 26.4577 79.7829C26.0594 79.7746 25.6446 79.8325 25.2464 79.8077C25.321 79.7664 25.3957 79.7251 25.4704 79.692C25.7359 79.5598 26.0096 79.4359 26.2834 79.3203C30.357 77.6266 35.6336 77.3374 39.5579 79.5764C41.2752 80.5512 43.1503 82.187 43.7725 84.1285C44.3035 85.7726 43.5485 87.2349 42.221 88.2428C40.1386 89.8208 37.0025 90.7627 34.3974 90.3826C33.4101 90.2339 32.4643 89.8787 31.643 89.3251C31.3277 89.1103 31.0373 88.879 30.7636 88.6146C30.6308 88.4824 30.2243 87.962 30.133 87.9702C31.6098 88.0528 33.5429 87.9041 34.3559 86.4501L34.3642 86.4418Z" fill="#0076CE"/>
</g>
<defs>
<clipPath id="clip0_3270_2">
<rect width="154" height="171" fill="white"/>
</clipPath>
</defs>
</svg>
